<?xml version="1.0" encoding="UTF-8" standalone="no"?>
<!DOCTYPE svg PUBLIC "-//W3C//DTD SVG 1.1//EN" "http://www.w3.org/Graphics/SVG/1.1/DTD/svg11.dtd">
<svg version="1.1" xmlns="http://www.w3.org/2000/svg" xmlns:xlink="http://www.w3.org/1999/xlink" preserveAspectRatio="xMidYMid meet" viewBox="0 0 640 640" width="640" height="640"><defs><path d="M176.83 13.14C149.48 -3.69 116.41 -4.39 88.38 11.27C60.34 26.93 43.6 55.46 43.6 87.57C43.6 133.96 43.6 505.07 43.6 551.46C43.6 600.02 82.73 639.74 130.82 640C130.95 640 131.08 640 131.21 640C146.24 640 161.9 635.29 176.52 626.36C188.29 619.18 192.01 603.83 184.83 592.06C177.65 580.29 162.29 576.58 150.53 583.76C143.69 587.93 137 590.09 131.09 590.09C112.94 589.99 93.52 574.44 93.52 551.46C93.52 505.07 93.52 133.96 93.52 87.57C93.52 73.8 100.7 61.56 112.72 54.84C124.75 48.13 138.93 48.43 150.64 55.64C188.44 78.94 490.85 265.34 528.65 288.65C540.01 295.64 546.51 307.3 546.48 320.65C546.45 333.99 539.9 345.63 528.48 352.6C501.15 369.33 282.51 503.2 255.18 519.93C243.43 527.13 239.73 542.49 246.93 554.25C254.13 566 269.49 569.7 281.25 562.5C308.57 545.77 527.18 411.92 554.51 395.18C580.67 379.22 596.33 351.4 596.39 320.75C596.46 290.1 580.91 262.21 554.83 246.15C479.23 199.55 214.63 36.44 176.83 13.14Z" id="b34cXZFYSn"></path></defs><g><g><g><use xlink:href="#b34cXZFYSn" opacity="1" fill="#ffffff" fill-opacity="1"></use><g><use xlink:href="#b34cXZFYSn" opacity="1" fill-opacity="0" stroke="#000000" stroke-width="1" stroke-opacity="0"></use></g></g></g></g></svg>