<?xml version="1.0" encoding="UTF-8" standalone="no"?>
<!DOCTYPE svg PUBLIC "-//W3C//DTD SVG 1.1//EN" "http://www.w3.org/Graphics/SVG/1.1/DTD/svg11.dtd">
<svg version="1.1" xmlns="http://www.w3.org/2000/svg" xmlns:xlink="http://www.w3.org/1999/xlink" preserveAspectRatio="xMidYMid meet" viewBox="0 0 640 640" width="640" height="640"><defs><path d="M463.17 626.86C490.52 643.69 523.58 644.39 551.62 628.73C579.66 613.07 596.4 584.54 596.4 552.43C596.4 506.04 596.4 134.93 596.4 88.54C596.4 39.98 557.27 0.26 509.18 0C509.05 0 508.92 0 508.79 0C493.76 0 478.1 4.71 463.48 13.64C451.71 20.81 447.99 36.17 455.17 47.94C462.35 59.7 477.71 63.42 489.47 56.24C496.31 52.07 502.99 49.91 508.91 49.91C527.06 50.01 546.48 65.55 546.48 88.54C546.48 134.93 546.48 506.04 546.48 552.43C546.48 566.2 539.3 578.44 527.28 585.16C515.25 591.87 501.07 591.57 489.35 584.36C451.55 561.06 149.15 374.65 111.35 351.35C99.99 344.36 93.49 332.7 93.52 319.35C93.55 306.01 100.09 294.37 111.52 287.4C138.85 270.67 357.49 136.8 384.81 120.07C396.57 112.87 400.26 97.51 393.07 85.75C385.87 74 370.51 70.3 358.75 77.5C331.43 94.23 112.81 228.08 85.49 244.82C59.32 260.78 43.67 288.6 43.6 319.25C43.54 349.9 59.09 377.79 85.17 393.85C160.77 440.45 425.37 603.56 463.17 626.86Z" id="e2Dffq9k9o"></path></defs><g><g><g><use xlink:href="#e2Dffq9k9o" opacity="1" fill="#ffffff" fill-opacity="1"></use><g><use xlink:href="#e2Dffq9k9o" opacity="1" fill-opacity="0" stroke="#000000" stroke-width="1" stroke-opacity="0"></use></g></g></g></g></svg>